<svg width="96" height="85" viewBox="0 0 96 85" fill="none" xmlns="http://www.w3.org/2000/svg">
<path d="M94.992 73.5812L54.5426 3.52298C51.8298 -1.17432 45.053 -1.17432 42.3402 3.52298L1.89078 73.5812C-0.811478 78.2785 2.57686 84.1474 7.99194 84.1474H88.8909C94.306 84.1474 97.6943 78.2785 94.992 73.5812ZM44.6202 24.455H52.2626C53.8565 24.455 55.1126 25.8166 54.9754 27.4L53.2654 47.7936C53.1493 49.2081 51.967 50.2953 50.5525 50.2953H46.3303C44.9158 50.2953 43.7335 49.2081 43.6174 47.7936L41.9074 27.4C41.7702 25.8166 43.0263 24.455 44.6202 24.455ZM48.4414 72.7473C44.8102 72.7473 41.8652 69.8022 41.8652 66.171C41.8652 62.5399 44.8102 59.5949 48.4414 59.5949C52.0726 59.5949 55.0176 62.5399 55.0176 66.171C55.0176 69.8022 52.0726 72.7473 48.4414 72.7473Z" fill="#FFC700"/>
</svg>
