<svg width="100" height="100" viewBox="0 0 100 100" fill="none" xmlns="http://www.w3.org/2000/svg">
<path d="M50 16.6665V24.9998" stroke="#FFC700" stroke-width="8" stroke-linecap="round"/>
<path d="M50 49.9986L25.2441 25.2769" stroke="#FFC700" stroke-width="8" stroke-linecap="round"/>
<path d="M83.333 50L74.9997 50" stroke="#FFC700" stroke-width="8" stroke-linecap="round"/>
<path d="M50 75V83.3333" stroke="#FFC700" stroke-width="8" stroke-linecap="round"/>
<path d="M25 50L16.6667 50" stroke="#FFC700" stroke-width="8" stroke-linecap="round"/>
<path d="M50 16.5C57.7504 16.5 65.261 19.1873 71.2522 24.1042C77.2433 29.021 81.3443 35.863 82.8563 43.4645C84.3683 51.066 83.1979 58.9566 79.5444 65.7918C75.8908 72.627 69.9803 77.984 62.8199 80.95C55.6595 83.9159 47.6921 84.3073 40.2755 82.0575C32.8588 79.8077 26.4517 75.0558 22.1458 68.6116C17.8399 62.1674 15.9016 54.4295 16.6613 46.7164C17.421 39.0033 20.8316 31.7923 26.3119 26.3119" stroke="#FFC700" stroke-width="8" stroke-linecap="round"/>
</svg>
