<svg width="100" height="101" viewBox="0 0 100 101" fill="none" xmlns="http://www.w3.org/2000/svg">
<path d="M50 88C58.6758 88 67.0832 84.9918 73.7897 79.4879C80.4962 73.984 85.0869 66.325 86.7794 57.8159C88.472 49.3068 87.1618 40.474 83.072 32.8226C78.9823 25.1712 72.366 19.1746 64.3506 15.8545C56.3352 12.5344 47.4166 12.0963 39.1143 14.6147C30.8121 17.1332 23.6399 22.4524 18.8199 29.6661C13.9999 36.8798 11.8302 45.5416 12.6806 54.1756C13.5309 62.8097 17.3488 70.8818 23.4835 77.0165" stroke="#66FF99" stroke-width="8" stroke-linecap="round"/>
<path d="M66.6665 42.1665L47.2352 65.484C46.5796 66.2707 46.2519 66.6641 45.8113 66.6841C45.3707 66.704 45.0087 66.342 44.2846 65.6179L33.3332 54.6665" stroke="#66FF99" stroke-width="8" stroke-linecap="round"/>
</svg>
