<svg width="33" height="33" viewBox="0 0 33 33" fill="none" xmlns="http://www.w3.org/2000/svg">
<g clip-path="url(#clip0_2161_3041)">
<path d="M16.5 0.191895C7.71191 0.191895 0.5 7.40381 0.5 16.1919C0.5 23.6912 5.76221 30.5034 12.75 32.1919V26.8984C12.0576 27.05 11.4204 27.0544 10.7156 26.8467C9.77002 26.5676 9.00171 25.9377 8.4314 24.9773C8.06787 24.364 7.42358 23.699 6.75146 23.7478L6.58667 21.8801C8.04004 21.7556 9.29736 22.7656 10.0437 24.0195C10.3752 24.5771 10.7568 24.9041 11.2466 25.0486C11.72 25.188 12.2283 25.1211 12.8206 24.9119C12.9692 23.7261 13.5125 23.2822 13.9229 22.6572V22.6562C9.75537 22.0347 8.09448 19.8237 7.4353 18.0786C6.56177 15.7615 7.03052 12.8667 8.5752 11.0374C8.60522 11.0017 8.65942 10.9084 8.63843 10.8433C7.93018 8.70386 8.79321 6.93408 8.82495 6.74634C9.64233 6.98804 9.77515 6.50317 12.3755 8.08301L12.825 8.35303C13.0129 8.46509 12.9539 8.40112 13.1418 8.38696C14.2275 8.09204 15.3721 7.9292 16.4998 7.91455C17.636 7.9292 18.7732 8.09204 19.9038 8.39893L20.0493 8.41357C20.0366 8.41162 20.0889 8.4043 20.1765 8.35205C23.4248 6.38452 23.3081 7.02759 24.1792 6.74438C24.2107 6.93237 25.0623 8.73096 24.3616 10.8433C24.2671 11.1343 27.1777 13.7996 25.5645 18.0779C24.9053 19.8237 23.2446 22.0347 19.0771 22.6562V22.6572C19.6113 23.4714 20.2532 23.9045 20.2498 25.5842V32.1919C27.2378 30.5034 32.4998 23.6912 32.4998 16.1919C32.5 7.40381 25.2881 0.191895 16.5 0.191895Z" fill="black"/>
</g>
<defs>
<clipPath id="clip0_2161_3041">
<rect width="32" height="32" fill="white" transform="translate(0.5 0.191895)"/>
</clipPath>
</defs>
</svg>
