<svg width="32" height="33" viewBox="0 0 32 33" fill="none" xmlns="http://www.w3.org/2000/svg">
<g clip-path="url(#clip0_2161_2917)">
<path d="M7.09188 19.53L5.978 23.6882L1.90681 23.7744C0.690125 21.5177 0 18.9357 0 16.192C0 13.5388 0.64525 11.0368 1.789 8.83374H1.78988L5.41437 9.49824L7.00212 13.101C6.66981 14.0698 6.48869 15.1098 6.48869 16.192C6.48881 17.3665 6.70156 18.4918 7.09188 19.53Z" fill="#FBBB00"/>
<path d="M31.7204 13.2029C31.9042 14.1708 32 15.1703 32 16.1919C32 17.3374 31.8796 18.4548 31.6501 19.5326C30.8712 23.2003 28.8361 26.4029 26.0167 28.6693L26.0159 28.6684L21.4506 28.4354L20.8045 24.402C22.6752 23.3049 24.1372 21.5879 24.9074 19.5326H16.3517V13.2029H25.0322H31.7204Z" fill="#518EF8"/>
<path d="M26.0158 28.6685L26.0167 28.6693C23.2747 30.8733 19.7916 32.192 16 32.192C9.9068 32.192 4.60924 28.7863 1.9068 23.7744L7.09186 19.53C8.44305 23.1362 11.9217 25.7032 16 25.7032C17.7529 25.7032 19.3952 25.2293 20.8044 24.4021L26.0158 28.6685Z" fill="#28B446"/>
<path d="M26.2128 3.87539L21.0294 8.11889C19.571 7.20727 17.847 6.68064 16 6.68064C11.8294 6.68064 8.28569 9.36546 7.00219 13.1009L1.78988 8.83364H1.789C4.45188 3.69958 9.81625 0.191895 16 0.191895C19.8822 0.191895 23.4418 1.57477 26.2128 3.87539Z" fill="#F14336"/>
</g>
<defs>
<clipPath id="clip0_2161_2917">
<rect width="32" height="32" fill="white" transform="translate(0 0.191895)"/>
</clipPath>
</defs>
</svg>
