<svg width="33" height="33" viewBox="0 0 33 33" fill="none" xmlns="http://www.w3.org/2000/svg">
<path d="M27.1218 13.5007L27.1218 12.1673C27.1218 10.9274 27.1218 10.3074 26.9855 9.79871C26.6157 8.41834 25.5375 7.34015 24.1571 6.97028C23.6484 6.83398 23.0285 6.83398 21.7885 6.83398" stroke="#FDFDFD" stroke-width="2" stroke-linejoin="round"/>
<path d="M27.1218 18.834L27.1218 20.1673C27.1218 21.4073 27.1218 22.0273 26.9855 22.5359C26.6157 23.9163 25.5375 24.9945 24.1571 25.3644C23.6484 25.5007 23.0285 25.5007 21.7885 25.5007" stroke="#FDFDFD" stroke-width="2" stroke-linejoin="round"/>
<path d="M13.7883 25.5007L12.455 25.5007C9.96269 25.5007 8.71653 25.5007 7.78833 24.9648C7.18025 24.6137 6.6753 24.1087 6.32423 23.5007C5.78833 22.5724 5.78833 21.3263 5.78833 18.834" stroke="#FDFDFD" stroke-width="2" stroke-linejoin="round"/>
<path d="M13.7883 6.83398L12.455 6.83398C9.96269 6.83398 8.71653 6.83398 7.78833 7.36988C7.18025 7.72096 6.6753 8.22591 6.32423 8.83398C5.78833 9.76219 5.78833 11.0083 5.78833 13.5007" stroke="#FDFDFD" stroke-width="2" stroke-linejoin="round"/>
<path d="M13.7883 28.168L13.7883 4.16797" stroke="#FDFDFD" stroke-width="2" stroke-linecap="round" stroke-linejoin="round"/>
</svg>
