<svg width="33" height="33" viewBox="0 0 33 33" fill="none" xmlns="http://www.w3.org/2000/svg">
<rect x="0.769043" y="0.15625" width="32" height="32" rx="5" fill="#2CAAFF"/>
<path d="M27.4355 13.4889L27.4355 12.1556C27.4355 10.9156 27.4355 10.2957 27.2993 9.78699C26.9294 8.40662 25.8512 7.32843 24.4708 6.95856C23.9622 6.82227 23.3422 6.82227 22.1022 6.82227" stroke="#FDFDFD" stroke-width="2" stroke-linejoin="round"/>
<path d="M27.4355 18.8223L27.4355 20.1556C27.4355 21.3956 27.4355 22.0155 27.2993 22.5242C26.9294 23.9046 25.8512 24.9828 24.4708 25.3526C23.9622 25.4889 23.3422 25.4889 22.1022 25.4889" stroke="#FDFDFD" stroke-width="2" stroke-linejoin="round"/>
<path d="M14.1025 25.4889L12.7692 25.4889C10.2769 25.4889 9.03074 25.4889 8.10254 24.953C7.49446 24.602 6.98951 24.097 6.63844 23.4889C6.10254 22.5607 6.10254 21.3146 6.10254 18.8223" stroke="#FDFDFD" stroke-width="2" stroke-linejoin="round"/>
<path d="M14.1025 6.82227L12.7692 6.82227C10.2769 6.82227 9.03074 6.82227 8.10254 7.35816C7.49446 7.70924 6.98951 8.21419 6.63844 8.82227C6.10254 9.75047 6.10254 10.9966 6.10254 13.4889" stroke="#FDFDFD" stroke-width="2" stroke-linejoin="round"/>
<path d="M14.1025 28.1563L14.1025 4.15625" stroke="#FDFDFD" stroke-width="2" stroke-linecap="round" stroke-linejoin="round"/>
</svg>
