<svg width="34" height="33" viewBox="0 0 34 33" fill="none" xmlns="http://www.w3.org/2000/svg">
<rect x="0.455078" y="0.167969" width="33.0667" height="32" rx="5" fill="#2CAAFF"/>
<path d="M16.9882 5.50195L7.34375 9.50195L16.9882 13.502L26.6326 9.50195L16.9882 5.50195Z" stroke="#FDFDFD" stroke-width="2" stroke-linejoin="round"/>
<path fill-rule="evenodd" clip-rule="evenodd" d="M11.4654 13.3759L6.96065 15.2443C6.5872 15.3992 6.34375 15.7637 6.34375 16.168C6.34375 16.5723 6.5872 16.9368 6.96065 17.0917L16.6051 21.0917C16.8504 21.1934 17.126 21.1934 17.3713 21.0917L27.0157 17.0917C27.3892 16.9368 27.6326 16.5723 27.6326 16.168C27.6326 15.7637 27.3892 15.3992 27.0157 15.2443L22.511 13.3759L19.9007 14.4585L24.0224 16.168L16.9882 19.0854L9.95401 16.168L14.0757 14.4585L11.4654 13.3759ZM16.6914 11.213C16.8847 11.153 17.0917 11.153 17.285 11.213L16.9882 11.3361L16.6914 11.213Z" fill="#FDFDFD"/>
<path fill-rule="evenodd" clip-rule="evenodd" d="M11.4654 20.0419L6.96065 21.9103C6.5872 22.0652 6.34375 22.4297 6.34375 22.834C6.34375 23.2383 6.5872 23.6028 6.96065 23.7577L16.6051 27.7577C16.8504 27.8594 17.126 27.8594 17.3713 27.7577L27.0157 23.7577C27.3892 23.6028 27.6326 23.2383 27.6326 22.834C27.6326 22.4297 27.3892 22.0652 27.0157 21.9103L22.511 20.0419L19.9007 21.1245L24.0224 22.834L16.9882 25.7514L9.95401 22.834L14.0757 21.1245L11.4654 20.0419ZM16.6914 17.879C16.8847 17.819 17.0917 17.819 17.285 17.879L16.9882 18.0021L16.6914 17.879Z" fill="#FDFDFD"/>
</svg>
