<svg width="34" height="33" viewBox="0 0 34 33" fill="none" xmlns="http://www.w3.org/2000/svg">
<path d="M17.3022 5.49023L7.65771 9.49023L17.3022 13.4902L26.9466 9.49023L17.3022 5.49023Z" stroke="#FDFDFD" stroke-width="2" stroke-linejoin="round"/>
<path fill-rule="evenodd" clip-rule="evenodd" d="M11.7794 13.3642L7.27461 15.2325C6.90116 15.3874 6.65771 15.752 6.65771 16.1562C6.65771 16.5605 6.90116 16.9251 7.27461 17.08L16.9191 21.08C17.1643 21.1817 17.44 21.1817 17.6853 21.08L27.3297 17.08C27.7032 16.9251 27.9466 16.5605 27.9466 16.1562C27.9466 15.752 27.7032 15.3874 27.3297 15.2325L22.825 13.3642L20.2147 14.4468L24.3363 16.1562L17.3022 19.0737L10.268 16.1562L14.3896 14.4468L11.7794 13.3642ZM17.0054 11.2013C17.1986 11.1412 17.4057 11.1412 17.5989 11.2013L17.3022 11.3244L17.0054 11.2013Z" fill="#FDFDFD"/>
<path fill-rule="evenodd" clip-rule="evenodd" d="M11.7794 20.0302L7.27461 21.8986C6.90116 22.0534 6.65771 22.418 6.65771 22.8223C6.65771 23.2266 6.90116 23.5911 7.27461 23.746L16.9191 27.746C17.1643 27.8477 17.44 27.8477 17.6853 27.746L27.3297 23.746C27.7032 23.5911 27.9466 23.2266 27.9466 22.8223C27.9466 22.418 27.7032 22.0534 27.3297 21.8986L22.825 20.0302L20.2147 21.1128L24.3363 22.8223L17.3022 25.7397L10.268 22.8223L14.3896 21.1128L11.7794 20.0302ZM17.0054 17.8673C17.1986 17.8072 17.4057 17.8072 17.5989 17.8673L17.3022 17.9904L17.0054 17.8673Z" fill="#FDFDFD"/>
</svg>
