<svg width="25" height="24" viewBox="0 0 25 24" fill="none" xmlns="http://www.w3.org/2000/svg">
<path d="M12.068 14L11.3609 14.7071L12.068 15.4142L12.7751 14.7071L12.068 14ZM13.068 5C13.068 4.44772 12.6203 4 12.068 4C11.5157 4 11.068 4.44771 11.068 5L13.068 5ZM6.36089 9.70711L11.3609 14.7071L12.7751 13.2929L7.7751 8.29289L6.36089 9.70711ZM12.7751 14.7071L17.7751 9.70711L16.3609 8.29289L11.3609 13.2929L12.7751 14.7071ZM13.068 14L13.068 5L11.068 5L11.068 14L13.068 14Z" fill="#2CAAFF"/>
<path d="M5.06799 16L5.06799 17C5.06799 18.1046 5.96342 19 7.06799 19L17.068 19C18.1726 19 19.068 18.1046 19.068 17V16" stroke="#2CAAFF" stroke-width="2"/>
</svg>
