<svg width="16" height="16" viewBox="0 0 16 17" fill="none" xmlns="http://www.w3.org/2000/svg">
<path fill-rule="evenodd" clip-rule="evenodd" d="M14 8.95703C14 12.2707 11.3137 14.957 8 14.957C4.68629 14.957 2 12.2707 2 8.95703C2 5.64332 4.68629 2.95703 8 2.95703C11.3137 2.95703 14 5.64332 14 8.95703ZM10.7071 11.6641C10.3166 12.0547 9.68342 12.0547 9.29289 11.6641L8 10.3712L6.70711 11.6641C6.31658 12.0547 5.68342 12.0547 5.29289 11.6641C4.90237 11.2736 4.90237 10.6404 5.29289 10.2499L6.58579 8.95703L5.29289 7.66414C4.90237 7.27361 4.90237 6.64045 5.29289 6.24992C5.68342 5.8594 6.31658 5.8594 6.70711 6.24992L8 7.54282L9.29289 6.24992C9.68342 5.8594 10.3166 5.8594 10.7071 6.24992C11.0976 6.64045 11.0976 7.27361 10.7071 7.66414L9.41421 8.95703L10.7071 10.2499C11.0976 10.6404 11.0976 11.2736 10.7071 11.6641Z" fill="#FF6666"/>
</svg>
