<svg width="16" height="16" viewBox="0 0 16 16" fill="none" xmlns="http://www.w3.org/2000/svg">
<path fill-rule="evenodd" clip-rule="evenodd" d="M8 14C11.3137 14 14 11.3137 14 8C14 4.68629 11.3137 2 8 2C4.68629 2 2 4.68629 2 8C2 11.3137 4.68629 14 8 14ZM8.08294 3.39876C8 3.47326 8 3.59328 8 3.83333V7.71132C8 7.85221 8 7.92265 7.96651 7.98066C7.93301 8.03868 7.87201 8.0739 7.75 8.14434L4.39156 10.0833L4.39155 10.0833C4.18367 10.2034 4.07973 10.2634 4.05668 10.3725C4.03363 10.4815 4.0995 10.5717 4.23125 10.7521C4.6136 11.2757 5.10203 11.7155 5.66667 12.0415C6.37609 12.451 7.18083 12.6667 8 12.6667C8.81917 12.6667 9.62391 12.451 10.3333 12.0415C11.0428 11.6319 11.6319 11.0428 12.0415 10.3333C12.451 9.62391 12.6667 8.81917 12.6667 8C12.6667 7.18083 12.451 6.37609 12.0415 5.66667C11.6319 4.95724 11.0428 4.36813 10.3333 3.95855C9.76869 3.63255 9.14367 3.42943 8.49906 3.36009C8.27694 3.3362 8.16589 3.32426 8.08294 3.39876Z" fill="#2CAAFF"/>
</svg>
