<svg width="24" height="25" viewBox="0 0 24 25" fill="none" xmlns="http://www.w3.org/2000/svg">
<path d="M10 15.0879L10 12.0879" stroke="#141416" stroke-width="2" stroke-linecap="round"/>
<path d="M14 15.0879L14 12.0879" stroke="#141416" stroke-width="2" stroke-linecap="round"/>
<path d="M3 7.08789H21V7.08789C20.0681 7.08789 19.6022 7.08789 19.2346 7.24013C18.7446 7.44312 18.3552 7.83247 18.1522 8.32252C18 8.69007 18 9.15601 18 10.0879V16.0879C18 17.9735 18 18.9163 17.4142 19.5021C16.8284 20.0879 15.8856 20.0879 14 20.0879H10C8.11438 20.0879 7.17157 20.0879 6.58579 19.5021C6 18.9163 6 17.9735 6 16.0879V10.0879C6 9.15601 6 8.69007 5.84776 8.32252C5.64477 7.83247 5.25542 7.44312 4.76537 7.24013C4.39782 7.08789 3.93188 7.08789 3 7.08789V7.08789Z" stroke="#141416" stroke-width="2" stroke-linecap="round"/>
<path d="M10.0681 3.45848C10.1821 3.35216 10.4332 3.25822 10.7825 3.19121C11.1318 3.12421 11.5597 3.08789 12 3.08789C12.4403 3.08789 12.8682 3.12421 13.2175 3.19121C13.5668 3.25822 13.8179 3.35216 13.9319 3.45848" stroke="#141416" stroke-width="2" stroke-linecap="round"/>
</svg>
