<svg width="38" height="38" viewBox="0 0 38 38" fill="none" xmlns="http://www.w3.org/2000/svg">
<path d="M31.9418 5.78516H6.49084C6.19755 5.78444 5.91494 5.89515 5.70017 6.09488C5.4854 6.29462 5.35451 6.56847 5.33398 6.86104V20.9053C5.35451 21.1979 5.4854 21.4717 5.70017 21.6715C5.91494 21.8712 6.19755 21.9819 6.49084 21.9812H31.9418C32.2351 21.9819 32.5177 21.8712 32.7324 21.6715C32.9472 21.4717 33.0781 21.1979 33.0986 20.9053V6.86104C33.0781 6.56847 32.9472 6.29462 32.7324 6.09488C32.5177 5.89515 32.2351 5.78444 31.9418 5.78516Z" fill="#2CAAFF"/>
<path d="M36.4759 29.9863L33.0053 23.6929C32.8957 23.5119 32.7385 23.3643 32.5508 23.2664C32.3631 23.1685 32.1522 23.124 31.941 23.1376H6.49006C6.27997 23.1228 6.06981 23.1656 5.88225 23.2614C5.69469 23.3572 5.53685 23.5024 5.42575 23.6814L1.95517 29.9747C1.88037 30.1075 1.84907 30.2603 1.86567 30.4118C1.88227 30.5633 1.94594 30.7058 2.04772 30.8192C2.17038 30.9542 2.32064 31.0613 2.4883 31.1331C2.65596 31.205 2.83712 31.2399 3.01948 31.2357H35.4116C35.5911 31.2398 35.7695 31.2058 35.935 31.136C36.1005 31.0662 36.2493 30.9622 36.3718 30.8308C36.4754 30.7186 36.5412 30.5768 36.5599 30.4253C36.5785 30.2738 36.5492 30.1202 36.4759 29.9863ZM21.5292 28.9219H16.9018C16.595 28.9219 16.3007 28.8001 16.0838 28.5831C15.8668 28.3662 15.7449 28.0719 15.7449 27.7651C15.7449 27.4583 15.8668 27.164 16.0838 26.9471C16.3007 26.7301 16.595 26.6082 16.9018 26.6082H21.5292C21.8361 26.6082 22.1303 26.7301 22.3473 26.9471C22.5642 27.164 22.6861 27.4583 22.6861 27.7651C22.6861 28.0719 22.5642 28.3662 22.3473 28.5831C22.1303 28.8001 21.8361 28.9219 21.5292 28.9219Z" fill="#2CAAFF"/>
</svg>
