<svg width="38" height="38" viewBox="0 0 38 38" fill="none" xmlns="http://www.w3.org/2000/svg">
<g clip-path="url(#clip0_2468_6410)">
<path d="M25.3095 0H12.9921C10.8183 0.0024649 9.05684 1.76395 9.05469 3.93768V33.0821C9.05684 35.2558 10.8183 37.0173 12.9921 37.0194H25.3095C27.4832 37.0173 29.2447 35.2558 29.2472 33.0821V3.93768C29.2447 1.76395 27.4832 0.0024649 25.3095 0ZM19.1509 33.6542C18.2213 33.6542 17.468 32.9009 17.468 31.9713C17.468 31.042 18.2213 30.2887 19.1509 30.2887C20.0802 30.2887 20.8335 31.042 20.8335 31.9713C20.8335 32.9009 20.0802 33.6542 19.1509 33.6542ZM21.675 5.04812H16.6269C16.1622 5.04812 15.7854 4.6713 15.7854 4.20666C15.7854 3.74203 16.1622 3.36551 16.6269 3.36551H21.675C22.1396 3.36551 22.5161 3.74203 22.5161 4.20666C22.5161 4.6713 22.1396 5.04812 21.675 5.04812Z" fill="#FF6666"/>
</g>
<defs>
<clipPath id="clip0_2468_6410">
<rect width="37.0195" height="37.0195" fill="white" transform="translate(0.666992)"/>
</clipPath>
</defs>
</svg>
