<svg width="38" height="38" viewBox="0 0 38 38" fill="none" xmlns="http://www.w3.org/2000/svg">
<g clip-path="url(#clip0_2468_6370)">
<path d="M30.1071 0H8.23205C5.90981 0.00277301 4.02816 1.88442 4.02539 4.20666V32.8128C4.02816 35.135 5.90981 37.0167 8.23205 37.0194H30.1071C32.4294 37.0167 34.3113 35.135 34.3141 32.8128V4.20666C34.3113 1.88442 32.4294 0.00277301 30.1071 0ZM19.1697 33.6542C18.2402 33.6542 17.4868 32.9009 17.4868 31.9713C17.4868 31.042 18.2402 30.2887 19.1697 30.2887C20.099 30.2887 20.8523 31.042 20.8523 31.9713C20.8523 32.9009 20.099 33.6542 19.1697 33.6542ZM21.6938 5.04812H16.6457C16.1811 5.04812 15.8042 4.6713 15.8042 4.20666C15.8042 3.74203 16.1811 3.36551 16.6457 3.36551H21.6938C22.1584 3.36551 22.535 3.74203 22.535 4.20666C22.535 4.6713 22.1584 5.04812 21.6938 5.04812Z" fill="#FF6665"/>
</g>
<defs>
<clipPath id="clip0_2468_6370">
<rect width="37.0195" height="37.0195" fill="white" transform="translate(0.686523)"/>
</clipPath>
</defs>
</svg>
