<svg width="24" height="25" viewBox="0 0 24 25" fill="none" xmlns="http://www.w3.org/2000/svg">
    <g clip-path="url(#clip0_2079_382)">
        <path
            d="M12.1039 24.1543C18.4764 24.1543 23.6424 18.7817 23.6424 12.1543C23.6424 5.52685 18.4764 0.154266 12.1039 0.154266C5.73137 0.154266 0.56543 5.52685 0.56543 12.1543C0.56543 18.7817 5.73137 24.1543 12.1039 24.1543Z"
            fill="#F0F0F0" />
        <path d="M2.95086 4.8484C2.0445 6.07479 1.36108 7.48831 0.963135 9.02389H6.96575L2.95086 4.8484Z"
            fill="#0052B4" />
        <path d="M23.245 9.02392C22.847 7.48839 22.1635 6.07487 21.2572 4.84848L17.2424 9.02392H23.245Z"
            fill="#0052B4" />
        <path d="M0.963135 15.2848C1.36112 16.8203 2.04455 18.2338 2.95086 19.4602L6.96561 15.2848H0.963135Z"
            fill="#0052B4" />
        <path d="M19.1289 2.63494C17.9496 1.69233 16.5905 0.981564 15.114 0.567657V6.81033L19.1289 2.63494Z"
            fill="#0052B4" />
        <path d="M5.0791 21.6736C6.25832 22.6162 7.61747 23.327 9.09395 23.7409V17.4982L5.0791 21.6736Z"
            fill="#0052B4" />
        <path d="M9.0939 0.567657C7.61743 0.981564 6.25828 1.69233 5.0791 2.63489L9.0939 6.81028V0.567657Z"
            fill="#0052B4" />
        <path d="M15.114 23.7409C16.5905 23.327 17.9496 22.6162 19.1288 21.6736L15.114 17.4982V23.7409Z"
            fill="#0052B4" />
        <path d="M17.2424 15.2848L21.2572 19.4602C22.1635 18.2339 22.847 16.8203 23.245 15.2848H17.2424Z"
            fill="#0052B4" />
        <path
            d="M23.5447 10.5891H13.609H13.6089V0.255844C13.1163 0.189141 12.614 0.154266 12.1039 0.154266C11.5937 0.154266 11.0915 0.189141 10.5989 0.255844V10.589V10.589H0.663101C0.598963 11.1014 0.56543 11.6238 0.56543 12.1543C0.56543 12.6848 0.598963 13.2071 0.663101 13.7195H10.5988H10.5988V24.0527C11.0915 24.1194 11.5937 24.1543 12.1039 24.1543C12.614 24.1543 13.1163 24.1194 13.6089 24.0527V13.7196V13.7195H23.5447C23.6088 13.2071 23.6424 12.6848 23.6424 12.1543C23.6424 11.6238 23.6088 11.1014 23.5447 10.5891Z"
            fill="#D80027" />
        <path
            d="M15.114 15.2848L20.2629 20.6396C20.4997 20.3934 20.7256 20.136 20.9411 19.8692L16.533 15.2847H15.114V15.2848Z"
            fill="#D80027" />
        <path
            d="M9.09397 15.2848H9.09388L3.94507 20.6395C4.18179 20.8858 4.42928 21.1208 4.68583 21.3449L9.09397 16.7603V15.2848Z"
            fill="#D80027" />
        <path
            d="M9.09395 9.02389V9.0238L3.94509 3.66894C3.70828 3.91513 3.48238 4.17252 3.26685 4.43933L7.67503 9.02384L9.09395 9.02389Z"
            fill="#D80027" />
        <path d="M15.114 9.02393L20.2629 3.66902C20.0262 3.42274 19.7787 3.1878 19.5222 2.96369L15.114 7.54821V9.02393Z"
            fill="#D80027" />
    </g>
    <defs>
        <clipPath id="clip0_2079_382">
            <rect width="23.0769" height="24" fill="white" transform="translate(0.56543 0.154266)" />
        </clipPath>
    </defs>
</svg>