<svg width="33" height="33" viewBox="0 0 33 33" fill="none" xmlns="http://www.w3.org/2000/svg">
    <path
        d="M31.713 21.7638C32.2892 20.1146 32.6035 18.3435 32.6035 16.5C32.6035 14.6566 32.2892 12.8855 31.713 11.2363C31.699 11.1868 31.6823 11.1385 31.6621 11.092C29.4398 4.92304 23.529 0.500122 16.6038 0.500122C9.67858 0.500122 3.7676 4.92304 1.54544 11.092C1.52525 11.1386 1.50843 11.1868 1.49452 11.2363C0.918376 12.8855 0.604004 14.6566 0.604004 16.5C0.604004 18.3435 0.918376 20.1146 1.49452 21.7638C1.50859 21.8133 1.52525 21.8616 1.54544 21.9081C3.76775 28.0772 9.67858 32.5 16.6038 32.5C23.529 32.5 29.4398 28.0771 31.6621 21.9081C31.6823 21.8616 31.699 21.8135 31.713 21.7638ZM16.6038 30.2066C15.9944 30.2066 15.012 29.1038 14.1909 26.6402C13.7946 25.4514 13.4773 24.0847 13.2461 22.598H19.9614C19.7302 24.0847 19.4129 25.4512 19.0168 26.6402C18.1955 29.1038 17.2131 30.2066 16.6038 30.2066ZM12.9679 20.3045C12.8576 19.0815 12.7994 17.8057 12.7994 16.5C12.7994 15.1944 12.8576 13.9186 12.9679 12.6956H20.2395C20.3498 13.9186 20.408 15.1944 20.408 16.5C20.408 17.8057 20.3498 19.0815 20.2395 20.3045H12.9679ZM2.89742 16.5002C2.89742 15.1806 3.08534 13.9042 3.43503 12.6958H10.6674C10.5602 13.9439 10.5058 15.2231 10.5058 16.5002C10.5058 17.7773 10.5601 19.0565 10.6674 20.3046H3.43503C3.08534 19.0961 2.89742 17.8198 2.89742 16.5002ZM16.6038 2.79369C17.2131 2.79369 18.1957 3.89644 19.0168 6.36003C19.4129 7.54887 19.7304 8.91553 19.9614 10.4021H13.246C13.4772 8.91537 13.7945 7.54887 14.1908 6.36003C15.012 3.89644 15.9944 2.79369 16.6038 2.79369ZM22.54 12.6958H29.7724C30.1221 13.9042 30.31 15.1806 30.31 16.5002C30.31 17.8198 30.1221 19.0962 29.7724 20.3046H22.54C22.6472 19.0565 22.7016 17.7773 22.7016 16.5002C22.7016 15.2231 22.6472 13.9439 22.54 12.6958ZM28.8762 10.4022H22.2768C21.8689 7.58923 21.169 5.06554 20.1872 3.27014C23.9938 4.30209 27.1475 6.93679 28.8762 10.4022ZM13.0202 3.26999C12.0384 5.06539 11.3385 7.58908 10.9306 10.4022H4.3312C6.06009 6.93679 9.2136 4.30209 13.0202 3.26999ZM4.3312 22.598H10.9306C11.3385 25.411 12.0384 27.9347 13.0202 29.7303C9.2136 28.6982 6.06009 26.0636 4.3312 22.598ZM20.1872 29.7303C21.169 27.9349 21.8689 25.4112 22.2768 22.598H28.8762C27.1475 26.0636 23.9938 28.6982 20.1872 29.7303Z"
        fill="black" />
</svg>