<svg width="40" height="41" viewBox="0 0 40 41" fill="none" xmlns="http://www.w3.org/2000/svg">
<path d="M28.577 15.0263L10.6581 9.05336C10.3578 8.95325 10.2076 8.9032 10.1038 8.97803C10 9.05286 10 9.21114 10 9.5277V22.1673L28.577 15.975C29.1653 15.7789 29.4594 15.6808 29.4594 15.5007C29.4594 15.3205 29.1653 15.2224 28.577 15.0263Z" fill="#2CAAFF"/>
<path d="M10 22.1673V9.5277C10 9.21114 10 9.05286 10.1038 8.97803C10.2076 8.9032 10.3578 8.95325 10.6581 9.05336L28.577 15.0263C29.1653 15.2224 29.4594 15.3205 29.4594 15.5007C29.4594 15.6808 29.1653 15.7789 28.577 15.975L10 22.1673ZM10 22.1673V30.5007V32.1673" stroke="#2CAAFF" stroke-width="2" stroke-linecap="round"/>
</svg>
