<svg width="54" height="54" viewBox="0 0 54 54" fill="none" xmlns="http://www.w3.org/2000/svg">
    <g clip-path="url(#clip0_2079_6853)">
        <path
            d="M41.8121 0H12.1879C5.45673 0 0 5.45673 0 12.1879V41.8121C0 48.5433 5.45673 54 12.1879 54H41.8121C48.5433 54 54 48.5433 54 41.8121V12.1879C54 5.45673 48.5433 0 41.8121 0Z"
            fill="url(#paint0_linear_2079_6853)" />
        <path
            d="M39.4009 9.04248H14.5991C11.5319 9.04248 9.03998 11.5295 9.03998 14.5991V39.401C9.03998 42.4706 11.5319 44.9576 14.5991 44.9576H39.4009C42.4681 44.9576 44.9576 42.4706 44.9576 39.401V14.5991C44.9576 11.5295 42.4681 9.04248 39.4009 9.04248ZM43.4888 39.401C43.4888 41.6554 41.6554 43.4889 39.4009 43.4889H27V35.7928L26.6377 35.4305L18.2072 27.0001L27 18.2073V10.5112H39.4009C41.6554 10.5112 43.4888 12.3447 43.4888 14.5991V39.401Z"
            fill="white" />
        <path d="M35.7927 27L27 35.7928V18.2073L35.7927 27Z" fill="white" />
    </g>
    <defs>
        <linearGradient id="paint0_linear_2079_6853" x1="27" y1="-24.3318" x2="27" y2="55.7282"
            gradientUnits="userSpaceOnUse">
            <stop offset="0.04" stop-color="#2BEFFF" />
            <stop offset="0.7" stop-color="#0C9CFF" />
            <stop offset="1" stop-color="#007CFF" />
        </linearGradient>
        <clipPath id="clip0_2079_6853">
            <rect width="54" height="54" fill="white" />
        </clipPath>
    </defs>
</svg>