<svg width="20" height="20" viewBox="0 0 20 20" fill="none" xmlns="http://www.w3.org/2000/svg">
<path d="M1.70312 7.41602C1.31479 7.41602 1 7.10123 1 6.71289V5.30664C1 2.98042 2.89253 1.08789 5.21875 1.08789H6.625C7.01334 1.08789 7.32812 1.40268 7.32812 1.79102C7.32812 2.17935 7.01334 2.49414 6.625 2.49414H5.21875C3.66794 2.49414 2.40625 3.75583 2.40625 5.30664V6.71289C2.40625 7.10123 2.09146 7.41602 1.70312 7.41602ZM19 6.71289V5.30664C19 2.98042 17.1075 1.08789 14.7812 1.08789H13.375C12.4443 1.1222 12.4425 2.4592 13.375 2.49414H14.7812C16.3321 2.49414 17.5938 3.75583 17.5938 5.30664V6.71289C17.6269 7.64253 18.9653 7.64604 19 6.71289ZM19 14.8691V13.4629C19 13.0746 18.6852 12.7598 18.2969 12.7598C17.9085 12.7598 17.5938 13.0746 17.5938 13.4629V14.8691C17.5938 16.42 16.3321 17.6816 14.7812 17.6816H13.375C12.4454 17.7148 12.4418 19.0532 13.375 19.0879H14.7812C17.1075 19.0879 19 17.1954 19 14.8691ZM7.32812 18.3848C7.32812 17.9964 7.01334 17.6816 6.625 17.6816H5.21875C3.66794 17.6816 2.40625 16.42 2.40625 14.8691V13.4629C2.40625 13.0746 2.09146 12.7598 1.70312 12.7598C1.31479 12.7598 1 13.0746 1 13.4629V14.8691C1 17.1954 2.89253 19.0879 5.21875 19.0879H6.625C7.01334 19.0879 7.32812 18.7731 7.32812 18.3848ZM10 14.0957C7.77071 14.0957 5.95703 12.282 5.95703 10.0527C6.1603 4.69654 13.8405 4.69802 14.043 10.0528C14.043 12.282 12.2293 14.0957 10 14.0957ZM10 7.41602C8.54611 7.41602 7.36328 8.59885 7.36328 10.0527C7.49582 13.5459 12.5047 13.5449 12.6367 10.0527C12.6367 8.59885 11.4539 7.41602 10 7.41602Z" fill="#141416" stroke="#141416" stroke-width="0.5"/>
</svg>

