<svg width="19" height="21" viewBox="0 0 19 21" fill="none" xmlns="http://www.w3.org/2000/svg">
<path d="M1.65137 11.5518C1.65137 9.66614 1.65137 8.72333 2.23715 8.13754C2.82294 7.55176 3.76575 7.55176 5.65137 7.55176H13.6514C15.537 7.55176 16.4798 7.55176 17.0656 8.13754C17.6514 8.72333 17.6514 9.66614 17.6514 11.5518V13.5518C17.6514 16.3802 17.6514 17.7944 16.7727 18.6731C15.894 19.5518 14.4798 19.5518 11.6514 19.5518H7.65137C4.82294 19.5518 3.40873 19.5518 2.53005 18.6731C1.65137 17.7944 1.65137 16.3802 1.65137 13.5518V11.5518Z" stroke="#929292" stroke-width="2"/>
<path d="M13.6514 6.55176V5.55176C13.6514 3.34262 11.8605 1.55176 9.65137 1.55176V1.55176C7.44223 1.55176 5.65137 3.34262 5.65137 5.55176V6.55176" stroke="#929292" stroke-width="2" stroke-linecap="round"/>
<circle cx="9.65137" cy="13.5518" r="2" fill="#929292"/>
</svg>
