<svg width="20" height="21" viewBox="0 0 20 21" fill="none" xmlns="http://www.w3.org/2000/svg">
<path fill-rule="evenodd" clip-rule="evenodd" d="M10 18C14.1421 18 17.5 14.6421 17.5 10.5C17.5 6.35786 14.1421 3 10 3C5.85786 3 2.5 6.35786 2.5 10.5C2.5 14.6421 5.85786 18 10 18ZM14.1016 8.64018C14.4551 8.21591 14.3978 7.58534 13.9735 7.23178C13.5492 6.87821 12.9187 6.93554 12.5651 7.35982L9.80049 10.6774C9.45377 11.0934 9.25886 11.3238 9.10324 11.4653L9.0973 11.4707L9.09089 11.4659C8.92309 11.339 8.70812 11.1272 8.32516 10.7443L7.37377 9.79289C6.98325 9.40237 6.35008 9.40237 5.95956 9.79289C5.56904 10.1834 5.56904 10.8166 5.95956 11.2071L6.91095 12.1585L6.95177 12.1993C7.27827 12.5259 7.59236 12.8402 7.8846 13.0611C8.21197 13.3087 8.64069 13.5415 9.1901 13.5165C9.73951 13.4916 10.1454 13.221 10.449 12.9448C10.72 12.6983 11.0044 12.3569 11.3 12.0021L11.3 12.0021L11.3369 11.9577L14.1016 8.64018Z" fill="#FDFDFD"/>
</svg>
