<svg width="20" height="21" viewBox="0 0 20 21" fill="none" xmlns="http://www.w3.org/2000/svg">
<path d="M10 0.5C4.50391 0.5 0 5.00391 0 10.5C0 15.9961 4.50391 20.5 10 20.5C15.4961 20.5 20 15.9961 20 10.5C20 5.00391 15.4961 0.5 10 0.5ZM3.43754 14.3437C2.76957 13.2187 2.38281 11.9062 2.38281 10.5C2.38281 6.31641 5.75781 2.89453 9.97652 2.88281C11.3945 2.88281 12.707 3.26949 13.8438 3.93746C14.1836 4.13672 14.2539 4.58203 13.9844 4.86328C12.1914 6.65621 6.15621 12.6914 4.36328 14.4843C4.08203 14.7539 3.63672 14.6836 3.43754 14.3437ZM10.0235 18.1172C8.60547 18.1172 7.29297 17.7304 6.15625 17.0625C5.81645 16.8633 5.74613 16.4062 6.02734 16.1367L15.6367 6.52734C15.9062 6.24609 16.3633 6.31641 16.5625 6.65625C17.2304 7.78125 17.6172 9.09375 17.6172 10.5C17.6172 14.707 14.2187 18.1055 10.0235 18.1172Z" fill="black"/>
</svg>
