<svg width="20" height="21" viewBox="0 0 20 21" fill="none" xmlns="http://www.w3.org/2000/svg">
<path fill-rule="evenodd" clip-rule="evenodd" d="M17.5 10.5C17.5 14.6421 14.1421 18 10 18C5.85786 18 2.5 14.6421 2.5 10.5C2.5 6.35786 5.85786 3 10 3C14.1421 3 17.5 6.35786 17.5 10.5ZM5.95956 14.5404C5.56904 14.1499 5.56904 13.5168 5.95956 13.1262L8.58579 10.5L5.95956 7.87377C5.56904 7.48325 5.56904 6.85008 5.95956 6.45956C6.35008 6.06904 6.98325 6.06904 7.37377 6.45956L10 9.08579L12.6262 6.45956C13.0168 6.06904 13.6499 6.06904 14.0404 6.45956C14.431 6.85008 14.431 7.48325 14.0404 7.87377L11.4142 10.5L14.0404 13.1262C14.431 13.5168 14.431 14.1499 14.0404 14.5404C13.6499 14.931 13.0168 14.931 12.6262 14.5404L10 11.9142L7.37377 14.5404C6.98325 14.931 6.35008 14.931 5.95956 14.5404Z" fill="#FDFDFD"/>
</svg>
