<svg width="80" height="80" viewBox="0 0 80 80" fill="none" xmlns="http://www.w3.org/2000/svg">
<rect width="80" height="80" rx="8" fill="#2CAAFF"/>
<path d="M68.1203 61.3748H12.7539C11.3609 61.3731 10.0254 60.8191 9.04044 59.8345C8.05548 58.8499 7.50149 57.515 7.5 56.1227V52.3605C7.5 52.111 7.59915 51.8718 7.77563 51.6954C7.95211 51.519 8.19148 51.4199 8.44106 51.4199H72.4332C72.6827 51.4199 72.9221 51.519 73.0986 51.6954C73.2751 51.8718 73.3742 52.111 73.3742 52.3605V56.1227C73.3727 57.515 72.8187 58.8499 71.8338 59.8345C70.8488 60.8191 69.5133 61.3731 68.1203 61.3748ZM9.38212 53.301V56.1227C9.38287 57.0164 9.73832 57.8732 10.3705 58.5052C11.0026 59.1372 11.8598 59.4927 12.7539 59.4937H68.1203C69.0144 59.4927 69.8716 59.1372 70.5037 58.5052C71.1359 57.8732 71.4913 57.0164 71.4921 56.1227V53.301H9.38212Z" fill="#FDFDFD"/>
<path d="M45.4739 57.0733H35.399C34.7797 57.0728 34.1858 56.8277 33.7477 56.3917C33.3097 55.9557 33.0633 55.3646 33.0625 54.7479V52.3622C33.0625 52.1123 33.1622 51.8726 33.3397 51.6959C33.5172 51.5192 33.7579 51.4199 34.0089 51.4199H46.8641C47.1151 51.4199 47.3558 51.5192 47.5333 51.6959C47.7108 51.8726 47.8105 52.1123 47.8105 52.3622V54.7479C47.8097 55.3646 47.5633 55.9557 47.1252 56.3917C46.6872 56.8277 46.0933 57.0728 45.4739 57.0733ZM34.9552 53.3044V54.7479C34.9555 54.8649 35.0023 54.9771 35.0855 55.0597C35.1687 55.1424 35.2815 55.1888 35.399 55.1888H45.4739C45.5915 55.1888 45.7042 55.1424 45.7874 55.0597C45.8706 54.9771 45.9175 54.8649 45.9178 54.7479V53.3044H34.9552Z" fill="#FDFDFD"/>
<path d="M67.2701 53.2628H13.6048C13.3548 53.2628 13.115 53.1637 12.9382 52.9872C12.7614 52.8107 12.6621 52.5713 12.6621 52.3217V21.3643C12.6634 20.3396 13.0717 19.3571 13.7975 18.6325C14.5233 17.9079 15.5073 17.5003 16.5337 17.499H64.3411C65.3676 17.5003 66.3516 17.9079 67.0774 18.6325C67.8032 19.3571 68.2115 20.3396 68.2127 21.3643V52.3217C68.2127 52.5713 68.1134 52.8107 67.9366 52.9872C67.7599 53.1637 67.5201 53.2628 67.2701 53.2628ZM14.5475 51.3805H66.3274V21.3643C66.3266 20.8386 66.1171 20.3347 65.7448 19.963C65.3725 19.5912 64.8677 19.3821 64.3411 19.3813H16.5337C16.0072 19.3821 15.5024 19.5912 15.1301 19.963C14.7577 20.3347 14.5482 20.8386 14.5475 21.3643V51.3805Z" fill="#FDFDFD"/>
</svg>
