<svg width="80" height="80" viewBox="0 0 80 80" fill="none" xmlns="http://www.w3.org/2000/svg">
<path d="M68.1203 61.3767H12.7539C11.3609 61.375 10.0254 60.8211 9.04044 59.8365C8.05548 58.8519 7.50149 57.517 7.5 56.1247V52.3624C7.5 52.113 7.59915 51.8737 7.77563 51.6974C7.95211 51.521 8.19148 51.4219 8.44106 51.4219H72.4332C72.6827 51.4219 72.9221 51.521 73.0986 51.6974C73.2751 51.8737 73.3742 52.113 73.3742 52.3624V56.1247C73.3727 57.517 72.8187 58.8519 71.8338 59.8365C70.8488 60.8211 69.5133 61.375 68.1203 61.3767ZM9.38212 53.303V56.1247C9.38287 57.0183 9.73832 57.8752 10.3705 58.5071C11.0026 59.1391 11.8598 59.4946 12.7539 59.4956H68.1203C69.0144 59.4946 69.8716 59.1391 70.5037 58.5071C71.1359 57.8752 71.4913 57.0183 71.4921 56.1247V53.303H9.38212Z" fill="#FDFDFD"/>
<path d="M45.4749 57.0753H35.4C34.7806 57.0748 34.1868 56.8296 33.7487 56.3937C33.3107 55.9577 33.0642 55.3665 33.0635 54.7498V52.3641C33.0635 52.1142 33.1632 51.8745 33.3407 51.6978C33.5181 51.5211 33.7588 51.4219 34.0098 51.4219H46.8651C47.1161 51.4219 47.3568 51.5211 47.5343 51.6978C47.7117 51.8745 47.8114 52.1142 47.8114 52.3641V54.7498C47.8107 55.3665 47.5642 55.9577 47.1262 56.3937C46.6881 56.8296 46.0943 57.0748 45.4749 57.0753ZM34.9562 53.3063V54.7498C34.9564 54.8669 35.0033 54.979 35.0865 55.0617C35.1697 55.1444 35.2825 55.1908 35.4 55.1908H45.4749C45.5924 55.1908 45.7052 55.1444 45.7884 55.0617C45.8716 54.979 45.9185 54.8669 45.9187 54.7498V53.3063H34.9562Z" fill="#FDFDFD"/>
<path d="M67.2701 53.2638H13.6048C13.3548 53.2638 13.115 53.1646 12.9382 52.9881C12.7614 52.8116 12.6621 52.5723 12.6621 52.3226V21.3653C12.6634 20.3406 13.0717 19.3581 13.7975 18.6335C14.5233 17.9089 15.5073 17.5012 16.5337 17.5H64.3411C65.3676 17.5012 66.3516 17.9089 67.0774 18.6335C67.8032 19.3581 68.2115 20.3406 68.2127 21.3653V52.3226C68.2127 52.5723 68.1134 52.8116 67.9366 52.9881C67.7599 53.1646 67.5201 53.2638 67.2701 53.2638ZM14.5475 51.3815H66.3274V21.3653C66.3266 20.8396 66.1171 20.3357 65.7448 19.9639C65.3725 19.5922 64.8677 19.3831 64.3411 19.3823H16.5337C16.0072 19.3831 15.5024 19.5922 15.1301 19.9639C14.7577 20.3357 14.5482 20.8396 14.5475 21.3653V51.3815Z" fill="#FDFDFD"/>
</svg>
