<svg width="80" height="80" viewBox="0 0 80 80" fill="none" xmlns="http://www.w3.org/2000/svg">
<path d="M52.1926 10H28.7567C27.0979 10.0019 25.5076 10.6617 24.3346 11.8346C23.1617 13.0076 22.5019 14.5979 22.5 16.2567V63.7433C22.5019 65.4021 23.1617 66.9924 24.3346 68.1654C25.5076 69.3383 27.0979 69.9981 28.7567 70H52.1926C53.8514 69.9981 55.4417 69.3383 56.6147 68.1654C57.7876 66.9924 58.4474 65.4021 58.4493 63.7433V16.2567C58.4474 14.5979 57.7876 13.0076 56.6147 11.8346C55.4417 10.6617 53.8514 10.0019 52.1926 10ZM47.5184 12.246V13.6975C47.5179 13.9907 47.4011 14.2718 47.1938 14.479C46.9864 14.6863 46.7053 14.8029 46.4121 14.8032H34.5404C34.2473 14.8029 33.9663 14.6863 33.759 14.479C33.5517 14.2717 33.4351 13.9907 33.4348 13.6975V12.246H47.5184ZM56.2027 63.7433C56.2015 64.8067 55.7785 65.8261 55.0267 66.578C54.2748 67.3299 53.2553 67.7528 52.192 67.754H28.7567C27.6933 67.7528 26.6739 67.3299 25.922 66.578C25.1701 65.8261 24.7472 64.8067 24.746 63.7433V16.2567C24.7472 15.1933 25.1701 14.1739 25.922 13.422C26.6739 12.6701 27.6933 12.2472 28.7567 12.246H31.1862V13.6975C31.1872 14.5861 31.5407 15.4381 32.169 16.0664C32.7973 16.6947 33.6493 17.0482 34.5379 17.0492H46.4095C47.2982 17.0482 48.1502 16.6948 48.7786 16.0664C49.407 15.4381 49.7606 14.5862 49.7618 13.6975V12.246H52.1926C53.2558 12.2473 54.2751 12.6704 55.0269 13.4222C55.7786 14.1741 56.2015 15.1935 56.2027 16.2567V63.7433Z" fill="#FDFDFD"/>
<path d="M47.3795 62.4082H33.5693C33.2714 62.4082 32.9858 62.5265 32.7752 62.7371C32.5646 62.9477 32.4463 63.2334 32.4463 63.5312C32.4463 63.829 32.5646 64.1147 32.7752 64.3253C32.9858 64.5359 33.2714 64.6542 33.5693 64.6542H47.3795C47.6774 64.6542 47.963 64.5359 48.1736 64.3253C48.3842 64.1147 48.5025 63.829 48.5025 63.5312C48.5025 63.2334 48.3842 62.9477 48.1736 62.7371C47.963 62.5265 47.6774 62.4082 47.3795 62.4082Z" fill="#FDFDFD"/>
</svg>
