<svg width="80" height="80" viewBox="0 0 80 80" fill="none" xmlns="http://www.w3.org/2000/svg">
<rect width="80" height="80" rx="8" fill="#2CAAFF"/>
<path d="M42.144 14.2832H38.9297V16.4261H42.144V14.2832Z" fill="#FDFDFD"/>
<path d="M40.5361 59.2832C38.4686 59.2832 36.7861 60.9657 36.7861 63.0332C36.7861 65.1008 38.4686 66.7832 40.5361 66.7832C42.6037 66.7832 44.2861 65.1008 44.2861 63.0332C44.2861 60.9657 42.6037 59.2832 40.5361 59.2832ZM40.5361 64.6404C39.6498 64.6404 38.929 63.9195 38.929 63.0333C38.929 62.1472 39.65 61.4262 40.5361 61.4262C41.4223 61.4262 42.1433 62.1472 42.1433 63.0333C42.1433 63.9195 41.4224 64.6404 40.5361 64.6404Z" fill="#FDFDFD"/>
<path d="M58.2081 10H22.8633C19.9064 10 17.5 12.3998 17.5 15.3493V64.6507C17.5 67.6003 19.9066 70 22.8634 70H58.2081C61.165 70 63.5715 67.6002 63.5715 64.6507V15.3493C63.5714 12.3998 61.165 10 58.2081 10ZM61.4286 64.6508C61.4286 66.4191 59.9837 67.8573 58.2081 67.8573H22.8633C21.0877 67.8573 19.6428 66.4192 19.6428 64.6508V15.3493C19.6428 13.581 21.0877 12.1428 22.8633 12.1428H58.208C59.9836 12.1428 61.4285 13.5809 61.4285 15.3493L61.4286 64.6508Z" fill="#FDFDFD"/>
</svg>
