<svg width="20" height="21" viewBox="0 0 20 21" fill="none" xmlns="http://www.w3.org/2000/svg">
<g clip-path="url(#clip0_887_3693)">
<path d="M0.78125 7.94336C0.349766 7.94336 0 7.59359 0 7.16211V5.59961C0 3.01492 2.10281 0.912109 4.6875 0.912109H6.25C6.68148 0.912109 7.03125 1.26188 7.03125 1.69336C7.03125 2.12484 6.68148 2.47461 6.25 2.47461H4.6875C2.96438 2.47461 1.5625 3.87648 1.5625 5.59961V7.16211C1.5625 7.59359 1.21273 7.94336 0.78125 7.94336ZM20 7.16211V5.59961C20 3.01492 17.8972 0.912109 15.3125 0.912109H13.75C12.7159 0.950234 12.7139 2.43578 13.75 2.47461H15.3125C17.0356 2.47461 18.4375 3.87648 18.4375 5.59961V7.16211C18.4744 8.19504 19.9614 8.19895 20 7.16211ZM20 16.2246V14.6621C20 14.2306 19.6502 13.8809 19.2188 13.8809C18.7873 13.8809 18.4375 14.2306 18.4375 14.6621V16.2246C18.4375 17.9477 17.0356 19.3496 15.3125 19.3496H13.75C12.7171 19.3865 12.7132 20.8735 13.75 20.9121H15.3125C17.8972 20.9121 20 18.8093 20 16.2246ZM7.03125 20.1309C7.03125 19.6994 6.68148 19.3496 6.25 19.3496H4.6875C2.96438 19.3496 1.5625 17.9477 1.5625 16.2246V14.6621C1.5625 14.2306 1.21273 13.8809 0.78125 13.8809C0.349766 13.8809 0 14.2306 0 14.6621V16.2246C0 18.8093 2.10281 20.9121 4.6875 20.9121H6.25C6.68148 20.9121 7.03125 20.5623 7.03125 20.1309ZM10 15.3652C7.52301 15.3652 5.50781 13.35 5.50781 10.873C5.73367 4.92172 14.2673 4.92336 14.4922 10.8731C14.4922 13.35 12.477 15.3652 10 15.3652ZM10 7.94336C8.38457 7.94336 7.07031 9.25762 7.07031 10.873C7.21758 14.7543 12.783 14.7533 12.9297 10.873C12.9297 9.25762 11.6154 7.94336 10 7.94336Z" fill="#141416"/>
</g>
<defs>
<clipPath id="clip0_887_3693">
<rect width="20" height="20" fill="white" transform="translate(0 0.912109)"/>
</clipPath>
</defs>
</svg>
